<?xml version="1.0" encoding="utf-8"?>
<svg xmlns="http://www.w3.org/2000/svg" viewBox="0 0 512 512">
  <title>CSS3</title>
  <path fill="#264DE4" d="M71.357,460.819L30.272,0h451.456l-41.129,460.746L255.724,512"/>
  <path fill="#2965F1" d="M405.388,431.408l35.148-393.73H256v435.146"/>
  <path fill="#EBEBEB" d="M124.46,208.59l5.065,56.517H256V208.59H124.46z M119.419,150.715H256V94.197H114.281l1.3,56.518H256z M256,355.372l-0.248,0.066l-62.944-16.996l-4.023-45.076h-56.736l7.919,88.741l115.772,32.14l0.26-0.073"/>
  <path fill="#ffffff" d="M255.805,208.59v56.517h69.524l-6.552,73.299l-62.972,16.996v58.75l115.816-32.104l0.851-9.549l13.276-148.792l1.381-56.517h-131.324z M255.805,94.197v56.518h135.939l1.127-56.518"/>
</svg>