<?xml version="1.0" encoding="UTF-8"?>
<svg width="100%" height="100%" viewBox="0 0 100 100" version="1.1" xmlns="http://www.w3.org/2000/svg">
    <g transform="translate(10,30)">
        <path d="M40,0 C45,0 50,5 60,5 L80,5 L80,15 L60,15 C55,15 50,10 40,10 C30,10 25,15 20,15 L0,15 L0,5 L20,5 C30,5 35,0 40,0 Z" fill="#000000"/>
        <path d="M40,20 C45,20 50,25 60,25 L80,25 L80,35 L60,35 C55,35 50,30 40,30 C30,30 25,35 20,35 L0,35 L0,25 L20,25 C30,25 35,20 40,20 Z" fill="#000000"/>
    </g>
</svg>