<?xml version="1.0" encoding="utf-8"?>
<svg xmlns="http://www.w3.org/2000/svg" viewBox="0 0 154 154">
  <circle cx="77" cy="77" r="77" fill="#05998b"/>
  <path fill="#ffffff" d="M35 85.4V68.6h6.9l9.4 11v-11h6.9v16.8h-6.9l-9.4-11v11H35zm38.6-8.4c0 2.8-.6 4.8-1.8 6.2-1.2 1.4-3.1 2.1-5.7 2.1h-7.5V68.6h7.5c2.6 0 4.5.7 5.7 2.1 1.2 1.4 1.8 3.4 1.8 6.3zm-8.1 2.7c1.8 0 2.7-1.2 2.7-3.5v-3c0-2.3-.9-3.5-2.7-3.5h-1v10h1zm29.4 5.7l-2.8-4.9h-2.3v4.9h-6.9V68.6h10.3c2.6 0 4.5.6 5.7 1.7 1.2 1.1 1.8 2.8 1.8 5.1 0 3-1.2 5-3.6 5.8l3.5 4.2h-5.7zm-2.8-9.4c1.8 0 2.7-.9 2.7-2.6v-.4c0-1.7-.9-2.6-2.7-2.6h-2.3v5.6h2.3z"/>
  <path fill="#ffffff" d="M119 85.4h-6.9V68.6h6.9v16.8z"/>
  <path fill="none" stroke="#ffffff" stroke-width="2" d="M28 50l14-14M42 50L28 36"/>
</svg>