<?xml version="1.0" encoding="utf-8"?>
<svg xmlns="http://www.w3.org/2000/svg" viewBox="0 0 128 128">
  <path fill="#3775A9" d="M58.5 44.1c-3.8.7-4.5 2.3-4.5 4.5 0 2.4.7 3.9 4.5 4.7 3.8.7 15.3.7 19.1 0 3.8-.7 4.5-2.3 4.5-4.7 0-2.2-.7-3.8-4.5-4.5-3.8-.7-15.3-.7-19.1 0z"/>
  <path fill="#3775A9" d="M99 67.8c0-19.7-1.6-29.5-11.8-33.4-.7-.3-1.6-.5-2.5-.7.2-1.1.4-2.2.4-3.4 0-11-8.9-19.9-19.9-19.9-7.3 0-13.7 4-17.2 9.9-.5-.1-1.1-.1-1.6-.1-11 0-19.9 8.9-19.9 19.9 0 1.2.1 2.3.3 3.4-.9.2-1.8.4-2.5.7C14.1 38.3 12.5 48.1 12.5 67.8c0 19.7 1.6 29.5 11.8 33.4 10.2 3.9 53.5 3.9 63.7 0 10.1-3.9 11.7-13.7 11.7-33.4zM50.9 29c0-2.7 2.2-4.9 4.9-4.9s4.9 2.2 4.9 4.9-2.2 4.9-4.9 4.9-4.9-2.2-4.9-4.9zm10.3 50.3c-13.5 0-24.4-4.6-24.4-10.3s10.9-10.3 24.4-10.3 24.4 4.6 24.4 10.3-10.9 10.3-24.4 10.3z"/>
</svg>