<?xml version="1.0" encoding="utf-8"?>
<svg xmlns="http://www.w3.org/2000/svg" viewBox="0 0 300 400">
  <!-- Cup -->
  <path fill="#5382A1" d="M200,300 C250,300 280,280 280,260 C280,240 250,220 200,220 C150,220 120,240 120,260 C120,280 150,300 200,300 Z"/>
  <!-- Steam -->
  <path fill="#F8981D" d="M180,220 C160,180 180,120 220,100 C260,80 280,40 260,20 C280,40 300,80 280,120 C260,160 200,180 180,220 M140,220 C120,180 140,120 180,100 C220,80 240,40 220,20 C240,40 260,80 240,120 C220,160 160,180 140,220"/>
</svg>