<?xml version="1.0" encoding="UTF-8"?>
<svg width="100%" height="100%" viewBox="0 0 64 64" version="1.1" xmlns="http://www.w3.org/2000/svg">
    <g transform="translate(2,2)">
        <!-- Server racks -->
        <rect x="0" y="0" width="30" height="10" rx="2" fill="#4169E1" stroke="#000" stroke-width="2"/>
        <rect x="0" y="15" width="30" height="10" rx="2" fill="#4169E1" stroke="#000" stroke-width="2"/>
        <rect x="0" y="30" width="30" height="10" rx="2" fill="#4169E1" stroke="#000" stroke-width="2"/>
        
        <!-- Server lights -->
        <circle cx="5" cy="5" r="2" fill="#FF6B6B"/>
        <circle cx="12" cy="5" r="2" fill="#4ECDC4"/>
        <circle cx="5" cy="20" r="2" fill="#FF6B6B"/>
        <circle cx="12" cy="20" r="2" fill="#4ECDC4"/>
        <circle cx="5" cy="35" r="2" fill="#FF6B6B"/>
        <circle cx="12" cy="35" r="2" fill="#4ECDC4"/>
        
        <!-- Database cylinder -->
        <path d="M35,0 h20 a10,5 0 0 1 0,10 h-20 a10,5 0 0 1 0,-10 z" fill="#FFD700" stroke="#000" stroke-width="2"/>
        <path d="M35,10 v30 h20 v-30" fill="#FFD700" stroke="#000" stroke-width="2"/>
        <path d="M35,40 h20 a10,5 0 0 1 0,10 h-20 a10,5 0 0 1 0,-10 z" fill="#FFD700" stroke="#000" stroke-width="2"/>
        
        <!-- Database lines -->
        <line x1="40" y1="20" x2="50" y2="20" stroke="#000" stroke-width="2"/>
        <line x1="40" y1="30" x2="50" y2="30" stroke="#000" stroke-width="2"/>
    </g>
</svg>