<?xml version="1.0" encoding="UTF-8"?>
<svg width="100%" height="100%" viewBox="0 0 200 200" version="1.1" xmlns="http://www.w3.org/2000/svg">
    <g transform="translate(10,10) scale(0.9)">
        <path d="M162.4 36.3c-8.1.2-14.4.4-19.7 1.7-1.5.4-4 .4-4.2 1.7.8.8 1 2.1 1.7 3.1 1.3 2.1 3.5 4.8 5.5 6.3 2.1 1.7 4.4 3.3 6.7 4.8 4.2 2.5 8.8 4 12.9 6.5 2.3 1.5 4.6 3.3 6.9 4.8 1.1.8 1.9 2.1 3.3 2.5v-.2c-.8-1-1-2.3-1.7-3.3-1-1-2.1-1.9-3.1-2.9-3.1-4.2-6.9-7.7-11-10.6-3.3-2.3-10.6-5.4-12-9.2l-.2-.2c2.3-.2 5-1 7.3-1.5 3.6-.8 6.9-.6 10.6-1.5 1.7-.4 3.3-.8 5-1.3v-.8c-1.9-1.9-3.3-4.4-5.2-6.1-5.2-4.4-11-8.8-16.9-12.5-3.1-2.1-7.1-3.3-10.4-5-1.1-.6-3.1-.9-3.8-1.9-1.7-2.1-2.7-4.8-4-7.3-2.9-5.4-5.6-11.3-8.1-17.1-1.7-3.8-2.7-7.7-4.8-11.3C112.1 9.3 105.4.5 94.8-5.7c-2.9-1.7-6.5-2.3-10.2-3.1l-6-.4c-1.3-.5-2.5-2.1-3.6-2.9C66.7-17.3 46.4-25 42.1-25.3c-2.7-1.5-6.1-2.3-9.2-3.5-1-.4-2.7-.6-3.3-1.3-1.5-1.9-2.3-4.4-3.5-6.7-2.7-5.6-5.2-11.7-7.5-17.5-1.7-3.8-2.7-7.7-4.8-11.3-9.8-16.7-20.4-26.8-36.7-36.7-3.5-1.9-7.7-2.7-12.1-3.8l-7.1-.4c-1.5-.6-3.1-2.5-4.4-3.3-5.4-3.3-19.4-10.8-23.3-1-2.5 6.1 3.8 12.1 6 15.2 1.5 2.3 3.5 4.8 4.6 7.3.6 1.7.8 3.5 1.5 5.2 1.5 4.2 2.9 8.8 4.8 12.7 1 2.1 2.1 4.4 3.5 6.3 0.8 1.1 2.1 1.7 2.3 3.6-1.3 1.9-1.5 4.6-2.3 6.9-3.5 11-2.1 24.7 2.9 32.8 1.5 2.5 5.2 7.9 10.2 5.8 4.4-1.7 3.3-7.3 4.6-12.1.3-1.1.1-1.9.6-2.7v.2l3.8 7.7c2.9 4.6 7.9 9.4 12.1 12.5 2.3 1.7 4 4.6 6.9 5.6v-.2h-.2c-.6-.8-1.5-1.1-2.3-1.7-1.9-1.9-4-4.2-5.4-6.3-4.4-6-8.3-12.5-11.7-19.2-1.7-3.3-3.1-6.9-4.4-10.2-0.6-1.1-.6-2.9-1.5-3.5-1.5 2.1-3.6 3.8-4.6 6.3-1.9 4-2.1 8.8-2.9 13.8-0.4.2-.2 0-.4.2-3.1-.8-4.2-4-5.4-6.7-2.9-7.1-3.3-18.5-.8-26.6.6-2.1 3.5-8.8 2.3-10.8-0.6-1.9-2.5-3.1-3.5-4.6-1.3-2.1-2.7-4.8-3.6-7.1-2.3-6.1-3.5-12.9-6-19-1.1-2.9-3.1-6-4.8-8.8-1.9-3.3-4-5.6-5.4-9.6-0.4-1.1-1.1-2.9-.4-4 .2-.8.6-1.1 1.3-1.3 1.3-1 4.8.3 6.1.8 3.5 1.3 6.5 2.5 9.4 4.2 1.3.8 2.9 2.3 4.6 2.7h2.1c3.1.6 6.5.2 9.4 1 5.2 1.7 9.8 4 13.8 6.7 12.7 8.1 23.1 19.6 30.1 33.4 1.1 2.1 1.7 4 2.7 6.1 2.1 4.8 4.6 9.8 6.7 14.6s4 9.4 6.9 13.8c1.5 2.3 7.3 3.5 9.8 4.8 1.9.8 4.8 1.5 6.5 2.5 3.3 1.9 6.5 4.2 9.6 6.3 1.5 1.1 6.3 3.5 6.5 5.4z" fill="#00758F"/>
        <path d="M49.8-24.7c-1.7 0-2.7.2-3.8.4v.2h.2c.8 1.5 2.1 2.5 3.1 3.8 0.8 1.5 1.5 2.9 2.3 4.4.2-.2.2-.4.2-.6 1.3-1 2.1-2.1 2.1-4-.6-.8-.8-1.5-1.3-2.3-0.6-1.1-2-1.7-2.8-1.9z" fill="#F29111"/>
    </g>
</svg>