<?xml version="1.0" encoding="UTF-8"?>
<svg width="100%" height="100%" viewBox="0 0 100 100" version="1.1" xmlns="http://www.w3.org/2000/svg">
    <g transform="translate(5,5) scale(0.9)">
        <!-- Left Snake (Blue) -->
        <path d="M50,0C37.5,0,35.9,5.4,35.9,9.7v9h28.2v3H23.4c-8.2,0-15.4,4.9-17.7,14.3c-2.6,10.8-2.7,17.5,0,28.8c2,8.4,6.8,14.3,15,14.3h9.7V67.4c0-9.7,8.4-18.2,18.2-18.2h29.1c8.1,0,14.5-6.7,14.5-14.8V9.7C92.3,4.1,85.4,0,75.6,0H50z" fill="#3776AB"/>
        <!-- Right Snake (Yellow) -->
        <path d="M50,100c12.5,0,14.1-5.4,14.1-9.7v-9H35.9v-3h40.7c8.2,0,15.4-4.9,17.7-14.3c2.6-10.8,2.7-17.5,0-28.8c-2-8.4-6.8-14.3-15-14.3h-9.7v11.7c0,9.7-8.4,18.2-18.2,18.2H22.3c-8.1,0-14.5,6.7-14.5,14.8v24.7C7.7,95.9,14.6,100,24.4,100H50z" fill="#FFD43B"/>
        <!-- Blue Eye -->
        <circle cx="35" cy="15" r="3" fill="white"/>
        <!-- Yellow Eye -->
        <circle cx="65" cy="85" r="3" fill="white"/>
    </g>
</svg>